<svg width="1171" height="118" viewBox="0 0 1171 118" fill="none" xmlns="http://www.w3.org/2000/svg">
<path opacity="0.33" d="M617.117 38.2897C855.884 -65.1096 925.207 78.1037 992.188 38.2897C1093.71 -22.3681 1171 47.1893 1171 47.1893L1171 117.098L-3.8147e-06 117.098L-9.92631e-06 47.1894C-9.92631e-06 47.1894 72.7191 16.6263 111.128 12.8791C149.537 9.01477 184.667 27.2824 199.89 38.7582C227.174 59.0165 298.254 106.91 357.272 111.594C416.29 116.278 594.4 48.009 617.117 38.2897Z" fill="black"/>
<path opacity="0.66" d="M311.486 38.2897C364.766 38.2897 401.887 65.4569 462.662 84.0758C496.153 94.2635 638.663 95.9029 760.096 38.2897C881.529 -19.3235 867.477 78.5721 934.809 38.2897C1035.52 -21.4313 1171 70.4922 1171 70.4922L1171 117.098L-3.8147e-06 117.098L-7.55128e-06 74.3566C-7.55128e-06 74.3566 33.0222 96.0201 107.849 96.0201C222.256 95.903 262.655 38.2898 311.486 38.2897Z" fill="black"/>
<path d="M273.897 83.2562C508.097 150.589 585.383 6.55564 736.559 60.4216C887.618 114.99 887.618 110.775 954.599 92.9754C1021.11 75.1762 1016.08 64.5201 1065.73 55.6205C1137.51 42.5053 1171 117.098 1171 117.098L-3.8147e-06 117.098C-3.8147e-06 117.098 11.5929 69.2042 97.8956 60.773C184.198 52.3418 199.538 62.0611 273.897 83.2562Z" fill="black"/>
</svg>
