<svg version="1.1" id="Layer_1" xmlns="http://www.w3.org/2000/svg" xmlns:xlink="http://www.w3.org/1999/xlink" x="0px" y="0px"
	 width="100%" viewBox="0 0 326 326" enable-background="new 0 0 326 326" xml:space="preserve">
<path fill="transparent" opacity="1.000000" stroke="none" 
	d="
M183.000000,327.000000 
	C122.000023,327.000000 61.500042,327.000000 1.000049,327.000000 
	C1.000032,218.333389 1.000032,109.666786 1.000016,1.000136 
	C109.666565,1.000091 218.333130,1.000091 326.999756,1.000045 
	C326.999847,109.666527 326.999847,218.333054 326.999939,326.999786 
	C279.166656,327.000000 231.333328,327.000000 183.000000,327.000000 
M170.225983,312.763092 
	C173.890182,312.809509 177.568680,312.671265 181.214676,312.953125 
	C185.032516,313.248291 186.124146,311.620728 185.986435,308.015930 
	C185.763962,302.191956 185.990417,296.352234 185.920166,290.520447 
	C185.888428,287.886505 186.547653,286.643921 189.537308,285.742920 
	C198.380630,283.077881 207.356094,280.418915 215.650055,276.443604 
	C241.577560,264.016418 260.260742,244.133743 272.716736,218.361099 
	C275.095215,213.439804 276.745636,208.166641 278.847961,202.757385 
	C277.184570,202.381256 276.559204,202.117371 275.933350,202.116241 
	C260.269104,202.087769 244.602722,201.967621 228.943268,202.240219 
	C227.093765,202.272430 224.924957,204.166992 223.519653,205.746017 
	C219.211060,210.587204 215.618149,216.121780 211.001846,220.622513 
	C194.437119,236.772522 174.013870,241.686813 151.550186,239.973541 
	C150.263412,239.875412 149.028305,239.099747 147.494781,238.539093 
	C149.063568,237.180588 150.115860,236.097397 151.329758,235.244186 
	C166.981461,224.243134 182.658585,213.278290 198.324463,202.297409 
	C214.113800,191.229980 229.860611,180.101151 245.719345,169.134140 
	C248.475098,167.228424 247.543213,165.793243 245.797623,164.221069 
	C244.845535,163.363556 243.568909,162.878860 242.510971,162.124573 
	C217.980850,144.635223 193.458481,127.135033 168.940109,109.629242 
	C162.017853,104.686844 155.112701,99.720497 147.817398,94.491081 
	C148.802551,93.760323 149.171600,93.259453 149.600540,93.201500 
	C161.880905,91.542412 174.246262,92.233337 185.646866,96.611229 
	C201.165390,102.570412 214.416122,112.140266 223.616791,126.610283 
	C224.742325,128.380417 227.858704,129.716217 230.107040,129.800690 
	C241.398361,130.224884 252.707718,130.180115 264.010986,130.270554 
	C268.875305,130.309479 273.740204,130.277084 279.203339,130.277084 
	C262.527557,84.861794 231.841202,56.726273 185.936539,45.556019 
	C185.936539,40.858879 185.949738,36.700256 185.934082,32.541740 
	C185.885880,19.747709 185.882492,19.866898 172.937195,19.964064 
	C169.669724,19.988590 168.496567,21.100885 168.531647,24.195396 
	C168.602386,30.432146 168.552704,36.670261 168.552704,43.123672 
	C165.766159,43.123672 163.978958,43.135105 162.191971,43.121613 
	C155.769806,43.073128 155.961563,43.027592 156.462402,36.240223 
	C156.850906,30.975115 156.540039,25.658396 156.540039,20.066431 
	C151.035599,20.066431 146.869736,20.283644 142.737595,20.003550 
	C138.834717,19.738993 137.920242,21.420622 138.041824,24.993176 
	C138.273117,31.789688 138.108871,38.599659 138.108871,45.185383 
	C131.389542,47.279469 125.210281,49.017849 119.159096,51.124172 
	C95.444275,59.378918 76.437538,74.132637 61.823486,94.310112 
	C57.983398,99.612083 54.044334,103.472404 47.865147,105.781456 
	C38.868240,109.143440 33.985519,119.633011 36.444923,128.511017 
	C39.173054,138.359055 49.808765,146.474304 58.677380,144.776215 
	C69.502190,142.703506 76.755005,135.611374 77.046768,124.676964 
	C77.222595,118.087692 74.910278,112.829399 70.399452,108.445122 
	C97.429298,68.347061 136.724472,53.811367 179.370102,60.240070 
	C213.836304,65.435753 238.755127,85.141129 256.645294,116.046875 
	C250.226913,116.046875 244.965637,115.784279 239.745010,116.131851 
	C235.733521,116.398926 233.652725,114.361259 231.028839,111.733864 
	C223.563736,104.258766 216.390442,95.999290 207.586578,90.455727 
	C188.659943,78.538132 167.713150,74.867111 145.350037,78.885231 
	C121.793274,83.117805 103.574326,95.457657 89.063072,113.880798 
	C88.375046,114.754295 89.486053,117.383537 90.266731,118.940704 
	C90.695084,119.795135 92.251343,120.024910 93.187347,120.692848 
	C109.061874,132.020874 124.914413,143.379715 140.782181,154.717255 
	C146.118103,158.529770 151.482864,162.301941 157.451309,166.529480 
	C148.565231,172.560211 140.192993,178.071442 132.001968,183.840012 
	C118.695358,193.211288 105.536331,202.791885 92.254242,212.198349 
	C87.349014,215.672241 87.010597,216.576263 90.584572,221.020935 
	C100.461281,233.303848 112.505859,242.550598 127.163902,248.755096 
	C143.489624,255.665466 160.333527,256.740692 177.298141,253.757828 
	C199.062347,249.931015 217.318909,239.443527 230.904663,221.553864 
	C232.090851,219.991913 233.673203,217.691666 235.188049,217.596909 
	C242.039993,217.168365 248.933823,217.409561 256.594604,217.409561 
	C232.763824,256.914246 198.581894,276.427246 153.487823,273.754944 
	C118.193268,271.663422 90.465942,254.680603 71.916077,226.338837 
	C73.880394,220.295563 76.142960,215.631836 76.843857,210.744156 
	C78.880356,196.542694 67.080742,187.816757 55.632240,188.172424 
	C45.678276,188.481674 36.661358,197.474228 36.021564,206.774536 
	C35.293850,217.352905 42.138569,227.640381 53.424244,229.042770 
	C54.781677,229.211456 56.322353,230.366760 57.202499,231.508499 
	C62.228603,238.028427 66.421791,245.323944 72.114723,251.171341 
	C89.246185,268.767578 109.593575,281.090851 133.952682,286.096863 
	C136.907166,286.704010 138.324707,288.141083 138.128418,291.531097 
	C137.801514,297.176910 137.822830,302.874298 138.234695,308.510742 
	C138.346191,310.036469 140.264481,312.524445 141.567276,312.671051 
	C146.135117,313.185181 150.796234,312.870514 155.921555,312.870514 
	C155.921555,307.053864 155.825638,301.857483 155.946136,296.666138 
	C156.092621,290.355194 158.765213,288.209869 165.176422,289.045410 
	C167.827072,289.390900 168.665451,290.193207 168.439972,293.520905 
	C168.014786,299.795563 169.004135,306.166107 170.225983,312.763092 
z"/>
<path fill="#fff" opacity="1.000000" stroke="none" 
	d="
M169.815750,312.629944 
	C169.004135,306.166107 168.014786,299.795563 168.439972,293.520905 
	C168.665451,290.193207 167.827072,289.390900 165.176422,289.045410 
	C158.765213,288.209869 156.092621,290.355194 155.946136,296.666138 
	C155.825638,301.857483 155.921555,307.053864 155.921555,312.870514 
	C150.796234,312.870514 146.135117,313.185181 141.567276,312.671051 
	C140.264481,312.524445 138.346191,310.036469 138.234695,308.510742 
	C137.822830,302.874298 137.801514,297.176910 138.128418,291.531097 
	C138.324707,288.141083 136.907166,286.704010 133.952682,286.096863 
	C109.593575,281.090851 89.246185,268.767578 72.114723,251.171341 
	C66.421791,245.323944 62.228603,238.028427 57.202499,231.508499 
	C56.322353,230.366760 54.781677,229.211456 53.424244,229.042770 
	C42.138569,227.640381 35.293850,217.352905 36.021564,206.774536 
	C36.661358,197.474228 45.678276,188.481674 55.632240,188.172424 
	C67.080742,187.816757 78.880356,196.542694 76.843857,210.744156 
	C76.142960,215.631836 73.880394,220.295563 71.916077,226.338837 
	C90.465942,254.680603 118.193268,271.663422 153.487823,273.754944 
	C198.581894,276.427246 232.763824,256.914246 256.594604,217.409561 
	C248.933823,217.409561 242.039993,217.168365 235.188049,217.596909 
	C233.673203,217.691666 232.090851,219.991913 230.904663,221.553864 
	C217.318909,239.443527 199.062347,249.931015 177.298141,253.757828 
	C160.333527,256.740692 143.489624,255.665466 127.163902,248.755096 
	C112.505859,242.550598 100.461281,233.303848 90.584572,221.020935 
	C87.010597,216.576263 87.349014,215.672241 92.254242,212.198349 
	C105.536331,202.791885 118.695358,193.211288 132.001968,183.840012 
	C140.192993,178.071442 148.565231,172.560211 157.451309,166.529480 
	C151.482864,162.301941 146.118103,158.529770 140.782181,154.717255 
	C124.914413,143.379715 109.061874,132.020874 93.187347,120.692848 
	C92.251343,120.024910 90.695084,119.795135 90.266731,118.940704 
	C89.486053,117.383537 88.375046,114.754295 89.063072,113.880798 
	C103.574326,95.457657 121.793274,83.117805 145.350037,78.885231 
	C167.713150,74.867111 188.659943,78.538132 207.586578,90.455727 
	C216.390442,95.999290 223.563736,104.258766 231.028839,111.733864 
	C233.652725,114.361259 235.733521,116.398926 239.745010,116.131851 
	C244.965637,115.784279 250.226913,116.046875 256.645294,116.046875 
	C238.755127,85.141129 213.836304,65.435753 179.370102,60.240070 
	C136.724472,53.811367 97.429298,68.347061 70.399452,108.445122 
	C74.910278,112.829399 77.222595,118.087692 77.046768,124.676964 
	C76.755005,135.611374 69.502190,142.703506 58.677380,144.776215 
	C49.808765,146.474304 39.173054,138.359055 36.444923,128.511017 
	C33.985519,119.633011 38.868240,109.143440 47.865147,105.781456 
	C54.044334,103.472404 57.983398,99.612083 61.823486,94.310112 
	C76.437538,74.132637 95.444275,59.378918 119.159096,51.124172 
	C125.210281,49.017849 131.389542,47.279469 138.108871,45.185383 
	C138.108871,38.599659 138.273117,31.789688 138.041824,24.993176 
	C137.920242,21.420622 138.834717,19.738993 142.737595,20.003550 
	C146.869736,20.283644 151.035599,20.066431 156.540039,20.066431 
	C156.540039,25.658396 156.850906,30.975115 156.462402,36.240223 
	C155.961563,43.027592 155.769806,43.073128 162.191971,43.121613 
	C163.978958,43.135105 165.766159,43.123672 168.552704,43.123672 
	C168.552704,36.670261 168.602386,30.432146 168.531647,24.195396 
	C168.496567,21.100885 169.669724,19.988590 172.937195,19.964064 
	C185.882492,19.866898 185.885880,19.747709 185.934082,32.541740 
	C185.949738,36.700256 185.936539,40.858879 185.936539,45.556019 
	C231.841202,56.726273 262.527557,84.861794 279.203339,130.277084 
	C273.740204,130.277084 268.875305,130.309479 264.010986,130.270554 
	C252.707718,130.180115 241.398361,130.224884 230.107040,129.800690 
	C227.858704,129.716217 224.742325,128.380417 223.616791,126.610283 
	C214.416122,112.140266 201.165390,102.570412 185.646866,96.611229 
	C174.246262,92.233337 161.880905,91.542412 149.600540,93.201500 
	C149.171600,93.259453 148.802551,93.760323 147.817398,94.491081 
	C155.112701,99.720497 162.017853,104.686844 168.940109,109.629242 
	C193.458481,127.135033 217.980850,144.635223 242.510971,162.124573 
	C243.568909,162.878860 244.845535,163.363556 245.797623,164.221069 
	C247.543213,165.793243 248.475098,167.228424 245.719345,169.134140 
	C229.860611,180.101151 214.113800,191.229980 198.324463,202.297409 
	C182.658585,213.278290 166.981461,224.243134 151.329758,235.244186 
	C150.115860,236.097397 149.063568,237.180588 147.494781,238.539093 
	C149.028305,239.099747 150.263412,239.875412 151.550186,239.973541 
	C174.013870,241.686813 194.437119,236.772522 211.001846,220.622513 
	C215.618149,216.121780 219.211060,210.587204 223.519653,205.746017 
	C224.924957,204.166992 227.093765,202.272430 228.943268,202.240219 
	C244.602722,201.967621 260.269104,202.087769 275.933350,202.116241 
	C276.559204,202.117371 277.184570,202.381256 278.847961,202.757385 
	C276.745636,208.166641 275.095215,213.439804 272.716736,218.361099 
	C260.260742,244.133743 241.577560,264.016418 215.650055,276.443604 
	C207.356094,280.418915 198.380630,283.077881 189.537308,285.742920 
	C186.547653,286.643921 185.888428,287.886505 185.920166,290.520447 
	C185.990417,296.352234 185.763962,302.191956 185.986435,308.015930 
	C186.124146,311.620728 185.032516,313.248291 181.214676,312.953125 
	C177.568680,312.671265 173.890182,312.809509 169.815750,312.629944 
M129.352402,204.817795 
	C122.845451,209.491089 116.338486,214.164383 108.908020,219.500946 
	C114.126083,223.268097 118.723709,226.390915 123.096230,229.802261 
	C127.044876,232.882950 130.319397,232.320389 134.258545,229.452652 
	C151.877945,216.625595 169.672028,204.037979 187.431534,191.403961 
	C199.084167,183.114334 210.785431,174.893036 222.686325,166.484726 
	C214.224792,160.444717 206.084549,154.597153 197.905670,148.804092 
	C184.168259,139.073944 170.379425,129.416214 156.664856,119.654114 
	C148.590958,113.907074 140.657104,107.962860 132.561905,102.246635 
	C131.236496,101.310738 128.937164,100.169716 127.877205,100.700264 
	C121.162651,104.061188 114.432732,107.563354 110.027107,114.218109 
	C134.363327,131.546799 158.489227,148.725739 183.423920,166.480576 
	C164.949707,179.547958 147.421936,191.945892 129.352402,204.817795 
M60.024063,127.640846 
	C62.727516,125.397942 62.884998,122.411224 60.510456,120.446815 
	C58.977684,119.178787 55.623135,118.731384 53.874088,119.567291 
	C52.600197,120.176094 51.821316,123.647743 52.219543,125.550537 
	C53.066799,129.598907 56.133629,129.751282 60.024063,127.640846 
M60.522648,212.013702 
	C63.101044,209.392105 62.417664,206.403412 59.932594,204.874268 
	C58.385204,203.922119 54.719120,204.287170 53.496708,205.529709 
	C52.269539,206.777054 52.010506,210.309128 52.903149,212.015503 
	C54.468273,215.007370 57.400600,214.771423 60.522648,212.013702 
z"/>
<path fill="transparent" opacity="1.000000" stroke="none" 
	d="
M129.623291,204.580811 
	C147.421936,191.945892 164.949707,179.547958 183.423920,166.480576 
	C158.489227,148.725739 134.363327,131.546799 110.027107,114.218109 
	C114.432732,107.563354 121.162651,104.061188 127.877205,100.700264 
	C128.937164,100.169716 131.236496,101.310738 132.561905,102.246635 
	C140.657104,107.962860 148.590958,113.907074 156.664856,119.654114 
	C170.379425,129.416214 184.168259,139.073944 197.905670,148.804092 
	C206.084549,154.597153 214.224792,160.444717 222.686325,166.484726 
	C210.785431,174.893036 199.084167,183.114334 187.431534,191.403961 
	C169.672028,204.037979 151.877945,216.625595 134.258545,229.452652 
	C130.319397,232.320389 127.044876,232.882950 123.096230,229.802261 
	C118.723709,226.390915 114.126083,223.268097 108.908020,219.500946 
	C116.338486,214.164383 122.845451,209.491089 129.623291,204.580811 
z"/>
<path fill="transparent" opacity="1.000000" stroke="none" 
	d="
M59.740479,127.920456 
	C56.133629,129.751282 53.066799,129.598907 52.219543,125.550537 
	C51.821316,123.647743 52.600197,120.176094 53.874088,119.567291 
	C55.623135,118.731384 58.977684,119.178787 60.510456,120.446815 
	C62.884998,122.411224 62.727516,125.397942 59.740479,127.920456 
z"/>
<path fill="transparent" opacity="1.000000" stroke="none" 
	d="
M60.245678,212.294144 
	C57.400600,214.771423 54.468273,215.007370 52.903149,212.015503 
	C52.010506,210.309128 52.269539,206.777054 53.496708,205.529709 
	C54.719120,204.287170 58.385204,203.922119 59.932594,204.874268 
	C62.417664,206.403412 63.101044,209.392105 60.245678,212.294144 
z"/>
</svg>