<svg xmlns:xlink="http://www.w3.org/1999/xlink" xmlns="http://www.w3.org/2000/svg" width="145" height="43" viewBox="0 0 145 43" fill="none"><path d="M82.751 9.18555V13.7388H76.2315V33.3317H71.4713V13.7388H64.9863V9.18555H82.751Z" fill="#2C264A"/><path d="M86.1735 26.5362C86.7714 28.6979 88.3926 29.7787 91.0372 29.7787C92.7389 29.7787 94.0267 29.2038 94.9006 28.054L98.488 30.1237C96.7862 32.5843 94.2797 33.8146 90.9682 33.8146C88.1166 33.8146 85.8285 32.9522 84.1038 31.2275C82.3791 29.5028 81.5167 27.3296 81.5167 24.708C81.5167 22.1095 82.3676 19.9478 84.0693 18.2231C85.771 16.4754 87.9557 15.6015 90.6232 15.6015C93.1528 15.6015 95.234 16.4754 96.8667 18.2231C98.5225 19.9708 99.3503 22.1325 99.3503 24.708C99.3503 25.283 99.2928 25.8924 99.1779 26.5362H86.1735ZM86.1045 23.0868H94.9006C94.6476 21.914 94.1187 21.0401 93.3138 20.4652C92.5319 19.8903 91.6351 19.6029 90.6232 19.6029C89.4274 19.6029 88.4386 19.9133 87.6567 20.5342C86.8748 21.1321 86.3574 21.983 86.1045 23.0868Z" fill="#2C264A"/><path d="M107.251 19.051C107.665 17.9471 108.344 17.1193 109.287 16.5674C110.252 16.0154 111.322 15.7395 112.495 15.7395V20.7067C111.138 20.5457 109.919 20.8217 108.838 21.5346C107.78 22.2474 107.251 23.4317 107.251 25.0875V33.3317H102.802V16.0844H107.251V19.051Z" fill="#2C264A"/><path d="M119.892 19.051C120.306 17.9471 120.984 17.1193 121.927 16.5674C122.893 16.0154 123.962 15.7395 125.135 15.7395V20.7067C123.778 20.5457 122.559 20.8217 121.479 21.5346C120.421 22.2474 119.892 23.4317 119.892 25.0875V33.3317H115.442V16.0844H119.892V19.051Z" fill="#2C264A"/><path d="M140.55 16.0844H145V33.3317H140.55V31.2965C139.216 32.9752 137.342 33.8146 134.928 33.8146C132.628 33.8146 130.65 32.9407 128.995 31.193C127.362 29.4223 126.545 27.2606 126.545 24.708C126.545 22.1555 127.362 20.0053 128.995 18.2576C130.65 16.4869 132.628 15.6015 134.928 15.6015C137.342 15.6015 139.216 16.4409 140.55 18.1196V16.0844ZM132.34 28.2265C133.237 29.1233 134.376 29.5718 135.755 29.5718C137.135 29.5718 138.274 29.1233 139.17 28.2265C140.09 27.3066 140.55 26.1338 140.55 24.708C140.55 23.2823 140.09 22.121 139.17 21.2241C138.274 20.3043 137.135 19.8443 135.755 19.8443C134.376 19.8443 133.237 20.3043 132.34 21.2241C131.444 22.121 130.995 23.2823 130.995 24.708C130.995 26.1338 131.444 27.3066 132.34 28.2265Z" fill="#2C264A"/><g clip-path="url(#clip0_3283_1799)"><path d="M11.0164 22.4085C11.3879 22.0565 11.8803 21.8604 12.392 21.8604H23.4657C24.018 21.8604 24.4657 22.3081 24.4657 22.8604V43.0329L18.8809 32.8467H0L11.0164 22.4085Z" fill="#FF824C"/><path d="M42.3946 22.4085C42.0231 22.0565 41.5308 21.8604 41.019 21.8604H29.9453C29.393 21.8604 28.9453 22.3081 28.9453 22.8604V43.0329L34.5302 32.8467H53.4111L42.3946 22.4085Z" fill="#FF824C"/><path d="M12.6164 17.1953C12.6646 17.7091 13.0959 18.1019 13.612 18.1019H39.5629C40.0715 18.1019 40.4991 17.7201 40.5565 17.2147L41.9299 5.11523L26.1392 13.4858L11.4824 5.11523L12.6164 17.1953Z" fill="#FF824C"/><path d="M26.7062 2.50928L21.1426 13.6365H32.2698L26.7062 2.50928Z" fill="#FF824C"/></g><defs><clipPath id="clip0_3283_1799"><rect width="53.4107" height="42.2835" fill="white" transform="translate(0 0.283691)"/></clipPath></defs></svg>