<svg xmlns:xlink="http://www.w3.org/1999/xlink" xmlns="http://www.w3.org/2000/svg" width="145" height="43" viewBox="0 0 145 43" fill="none"><path d="M82.751 9.41211V13.9654H76.2315V33.5582H71.4713V13.9654H64.9863V9.41211H82.751Z" fill="white"/><path d="M86.1735 26.7628C86.7714 28.9245 88.3926 30.0053 91.0372 30.0053C92.7389 30.0053 94.0267 29.4304 94.9006 28.2806L98.488 30.3502C96.7862 32.8108 94.2797 34.0411 90.9682 34.0411C88.1166 34.0411 85.8285 33.1788 84.1038 31.4541C82.3791 29.7293 81.5167 27.5562 81.5167 24.9346C81.5167 22.336 82.3676 20.1744 84.0693 18.4497C85.771 16.7019 87.9557 15.8281 90.6232 15.8281C93.1528 15.8281 95.234 16.7019 96.8667 18.4497C98.5225 20.1974 99.3503 22.359 99.3503 24.9346C99.3503 25.5095 99.2928 26.1189 99.1779 26.7628H86.1735ZM86.1045 23.3134H94.9006C94.6476 22.1406 94.1187 21.2667 93.3138 20.6918C92.5319 20.1169 91.6351 19.8294 90.6232 19.8294C89.4274 19.8294 88.4386 20.1399 87.6567 20.7608C86.8748 21.3587 86.3574 22.2095 86.1045 23.3134Z" fill="white"/><path d="M107.251 19.2775C107.665 18.1737 108.344 17.3458 109.287 16.7939C110.252 16.242 111.322 15.9661 112.495 15.9661V20.9333C111.138 20.7723 109.919 21.0482 108.838 21.7611C107.78 22.474 107.251 23.6583 107.251 25.314V33.5582H102.802V16.311H107.251V19.2775Z" fill="white"/><path d="M119.892 19.2775C120.306 18.1737 120.984 17.3458 121.927 16.7939C122.893 16.242 123.962 15.9661 125.135 15.9661V20.9333C123.778 20.7723 122.559 21.0482 121.479 21.7611C120.421 22.474 119.892 23.6583 119.892 25.314V33.5582H115.442V16.311H119.892V19.2775Z" fill="white"/><path d="M140.55 16.311H145V33.5582H140.55V31.523C139.216 33.2018 137.342 34.0411 134.928 34.0411C132.628 34.0411 130.65 33.1673 128.995 31.4196C127.362 29.6488 126.545 27.4872 126.545 24.9346C126.545 22.382 127.362 20.2319 128.995 18.4841C130.65 16.7134 132.628 15.8281 134.928 15.8281C137.342 15.8281 139.216 16.6674 140.55 18.3462V16.311ZM132.34 28.453C133.237 29.3499 134.376 29.7983 135.755 29.7983C137.135 29.7983 138.274 29.3499 139.17 28.453C140.09 27.5332 140.55 26.3604 140.55 24.9346C140.55 23.5088 140.09 22.3475 139.17 21.4507C138.274 20.5308 137.135 20.0709 135.755 20.0709C134.376 20.0709 133.237 20.5308 132.34 21.4507C131.444 22.3475 130.995 23.5088 130.995 24.9346C130.995 26.3604 131.444 27.5332 132.34 28.453Z" fill="white"/><g clip-path="url(#clip0_1994_993)"><path d="M11.0164 22.6352C11.3879 22.2832 11.8803 22.087 12.392 22.087H23.4657C24.018 22.087 24.4657 22.5348 24.4657 23.087V43.2596L18.8809 33.0734H0L11.0164 22.6352Z" fill="white"/><path d="M11.0164 22.6352C11.3879 22.2832 11.8803 22.087 12.392 22.087H23.4657C24.018 22.087 24.4657 22.5348 24.4657 23.087V43.2596L18.8809 33.0734H0L11.0164 22.6352Z" fill="#2C264A" fill-opacity="0.15"/><path d="M42.3946 22.6352C42.0231 22.2832 41.5308 22.087 41.019 22.087H29.9453C29.393 22.087 28.9453 22.5348 28.9453 23.087V43.2596L34.5302 33.0734H53.4111L42.3946 22.6352Z" fill="white"/><path d="M42.3946 22.6352C42.0231 22.2832 41.5308 22.087 41.019 22.087H29.9453C29.393 22.087 28.9453 22.5348 28.9453 23.087V43.2596L34.5302 33.0734H53.4111L42.3946 22.6352Z" fill="#2C264A" fill-opacity="0.15"/><path d="M12.6164 17.4218C12.6646 17.9356 13.0959 18.3283 13.612 18.3283H39.5629C40.0715 18.3283 40.4991 17.9465 40.5565 17.4411L41.9299 5.34167L26.1392 13.7122L11.4824 5.34167L12.6164 17.4218Z" fill="white"/><path d="M26.7062 2.73572L21.1426 13.863H32.2698L26.7062 2.73572Z" fill="white"/></g><defs><clipPath id="clip0_1994_993"><rect width="53.4107" height="42.2835" fill="white" transform="translate(0 0.510254)"/></clipPath></defs></svg>